{"title":"The Suspicions Of Mr Whicher *2011* [DVDRip.XviD-miguel] [ENG]","uid":6480125,"size":741362046,"categoryP":"video","categoryS":"movies","magnet":"?xt=urn:btih:df0fd0d90c2182e68d1588e157dd23082ec9a745&amp;dn=The+Suspicions+Of+Mr+Whicher+%2A2011%2A+%5BDVDRip.XviD-miguel%5D+%5BENG%5D&amp;tr=udp%3A%2F%2Ftracker.openbittorrent.com%3A80&amp;tr=udp%3A%2F%2Fopen.demonii.com%3A1337&amp;tr=udp%3A%2F%2Ftracker.coppersurfer.tk%3A6969&amp;tr=udp%3A%2F%2Fexodus.desync.com%3A6969","seeders":3,"leechers":0,"uploader":"miguel1983","files":-1,"time":1308482400,"description":" &lt;a href=&quot;http://img219.imageshack.us/img219/2507/c1194a.jpg&quot; rel=&quot;nofollow&quot; target=&quot;_NEW&quot;&gt;http://img219.imageshack.us/img219/2507/c1194a.jpg&lt;/a&gt;\n\nCountry.......: United Kingdom\nGenre.........: Drama\nDate release..: 25.04.2011 [World]\nDirector......: James Hawes\nWriters.......: Kate Summerscale, Neil McKay\nDuration......: 94 min.\nMore..........: http://www.imdb.com/title/tt1724572\nTrailer.......:\n\nPilot :\nBased on true events, a Scotland Yard Detective Inspector investigates the horrific murder of a three-year-old boy. \n\nCats :\nPaddy Considine   \t ...  \tDetective Whicher\nPeter Capaldi \t... \tSamuel Kent\nTom Georgeson \t... \tSuperintendent Foley\nWilliam Beck \t... \tDolly Williamson\nEmma Fielding \t... \tMary Kent\nTim Pigott-Smith \t... \tCommissioner Mayne\nKate O Flynn \t... \tElizabeth Gough\nDonald Sumpter \t... \tPeter Edlin QC\nBen Miles \t... \tDr. Stapleton\nAlexandra Roach \t... \tConstance Kent\nJay Simpson \t... \tGeorge Redman\nPeter Gordon \t... \tHolcombe\nCharlie Hiett \t... \tWilliam Kent\nSarah Ridgeway \t... \tSarah Cox\nBen Crompton \t... \tWilliam Nutt \n\nData Technical :\n!!! SAMPLE !!!\nAudio.....: English\nSubtitles.: English .sub\nFormat                           : AVI\nFormat/Info                      : Audio Video Interleave\nFile size                        : 700 MiB\nDuration                         : 1h 34mn\nOverall bit rate                 : 1 037 Kbps\nWriting application              : VirtualDubMod 1.5.10.2 (build 2540/release)\nWriting library                  : VirtualDubMod build 2540/release\nVideo\nID                               : 0\nFormat                           : MPEG-4 Visual\nFormat profile                   : Advanced Simple@L5\nFormat settings, BVOP            : Yes\nFormat settings, QPel            : No\nFormat settings, GMC             : No warppoints\nFormat settings, Matrix          : Default (H.263)\nCodec ID                         : XVID\nCodec ID/Hint                    : XviD\nDuration                         : 1h 34mn\nBit rate                         : 892 Kbps\nWidth                            : 640 pixels\nHeight                           : 352 pixels\nDisplay aspect ratio             : 16:9\nFrame rate                       : 25.000 fps\nColor space                      : YUV\nChroma subsampling               : 4:2:0\nBit depth                        : 8 bits\nScan type                        : Progressive\nBits/(Pixel*Frame)               : 0.158\nStream size                      : 602 MiB (86%)\nWriting library                  : XviD 1.2.1 (UTC 2008-12-04)\nAudio\nID                               : 1\nFormat                           : MPEG Audio\nFormat version                   : Version 1\nFormat profile                   : Layer 3\nMode                             : Joint stereo\nMode extension                   : MS Stereo\nCodec ID                         : 55\nCodec ID/Hint                    : MP3\nDuration                         : 1h 34mn\nBit rate mode                    : Variable\nBit rate                         : 128 Kbps\nChannel(s)                       : 2 channels\nSampling rate                    : 48.0 KHz\nStream size                      : 89.0 MiB (13%)\nAlignment                        : Aligned on interleaves\nInterleave, duration             : 24 ms (0.60 video frame)\nInterleave, preload duration     : 198 ms\nWriting library                  : LAME3.90.\nEncoding settings                : -m j -V 4 -q 2 -lowpass 17.6 --abr 128\n\nScreen : &lt;a href=&quot;\nhttp://img805.imageshack.us/img805/8704/thesuspicionsofmrwhiche.jpg&quot; rel=&quot;nofollow&quot; target=&quot;_NEW&quot;&gt;\nhttp://img805.imageshack.us/img805/8704/thesuspicionsofmrwhiche.jpg&lt;/a&gt; &lt;a href=&quot;\nhttp://img815.imageshack.us/img815/8704/thesuspicionsofmrwhiche.jpg&quot; rel=&quot;nofollow&quot; target=&quot;_NEW&quot;&gt;\nhttp://img815.imageshack.us/img815/8704/thesuspicionsofmrwhiche.jpg&lt;/a&gt; &lt;a href=&quot;\nhttp://img836.imageshack.us/img836/8704/thesuspicionsofmrwhiche.jpg&quot; rel=&quot;nofollow&quot; target=&quot;_NEW&quot;&gt;\nhttp://img836.imageshack.us/img836/8704/thesuspicionsofmrwhiche.jpg&lt;/a&gt; &lt;a href=&quot;\nhttp://img84.imageshack.us/img84/8704/thesuspicionsofmrwhiche.jpg&quot; rel=&quot;nofollow&quot; target=&quot;_NEW&quot;&gt;\nhttp://img84.imageshack.us/img84/8704/thesuspicionsofmrwhiche.jpg&lt;/a&gt; &lt;a href=&quot;\nhttp://img829.imageshack.us/img829/8704/thesuspicionsofmrwhiche.jpg&quot; rel=&quot;nofollow&quot; target=&quot;_NEW&quot;&gt;\nhttp://img829.imageshack.us/img829/8704/thesuspicionsofmrwhiche.jpg&lt;/a&gt;","torrent":{"xt":"urn:btih:df0fd0d90c2182e68d1588e157dd23082ec9a745","amp;dn":"The+Suspicions+Of+Mr+Whicher+%2A2011%2A+%5BDVDRip.XviD-miguel%5D+%5BENG%5D","amp;tr":["udp%3A%2F%2Ftracker.openbittorrent.com%3A80","udp%3A%2F%2Fopen.demonii.com%3A1337","udp%3A%2F%2Ftracker.coppersurfer.tk%3A6969","udp%3A%2F%2Fexodus.desync.com%3A6969"],"infoHash":"df0fd0d90c2182e68d1588e157dd23082ec9a745","infoHashBuffer":{"type":"Buffer","data":[223,15,208,217,12,33,130,230,141,21,136,225,87,221,35,8,46,201,167,69]},"announce":[],"urlList":[]}}